<svg width="43" height="39" viewBox="0 0 43 39" fill="none" xmlns="http://www.w3.org/2000/svg">
<path fill-rule="evenodd" clip-rule="evenodd" d="M23.6395 0.524186C24.8418 -0.174727 26.3266 -0.174729 27.5288 0.524184L40.9525 8.32797C42.144 9.02064 42.8771 10.2948 42.8771 11.673V27.327C42.8771 28.7052 42.144 29.9794 40.9525 30.672L27.5288 38.4758C26.3266 39.1747 24.8418 39.1747 23.6395 38.4758L10.2159 30.672C9.02438 29.9794 8.29127 28.7052 8.29127 27.327V23.9065H5.25114V21.8337H8.29127V19.7609H3.73107V17.688H8.29127H13.1278V15.6152H8.29127H6.08026V13.5424H8.29127V11.673C8.29127 10.2948 9.02438 9.02065 10.2159 8.32797L23.6395 0.524186ZM25.5842 7.13219L36.1753 13.3161V25.6839L25.5842 31.8678L14.993 25.6839V21.8337H8.29128V19.7608H14.993V13.3161L25.5842 7.13219ZM0.829127 15.6152H2.90194V17.688H0.829127V15.6152ZM2.07282 19.7609H0V21.8337H2.07282V19.7609ZM2.62557 23.9065H4.69839V25.9793H2.62557V23.9065ZM8.29128 23.9065H13.1278V25.9793H8.29128V23.9065Z" fill="url(#paint0_linear_3230_40422)"/>
<defs>
<linearGradient id="paint0_linear_3230_40422" x1="1.95082e-07" y1="20.7973" x2="42.8382" y2="20.7973" gradientUnits="userSpaceOnUse">
<stop stop-color="#72E909"/>
<stop offset="1" stop-color="#0B4E09"/>
</linearGradient>
</defs>
</svg>
